<?xml version="1.0" encoding="utf-8"?>
<!-- Generator: Adobe Illustrator 22.1.0, SVG Export Plug-In . SVG Version: 6.00 Build 0)  -->
<svg version="1.1" id="Layer_1" xmlns="http://www.w3.org/2000/svg" xmlns:xlink="http://www.w3.org/1999/xlink" x="0px" y="0px"
	 viewBox="0 0 504 504" style="enable-background:new 0 0 504 504;" xml:space="preserve">
<style type="text/css">
	.st0{fill:#FFFFFF;}
</style>
<path class="st0" d="M503.5,44l-7.2,4.2l-9.5,5.5v-5.4c0.1,0,0.2,0,0.3,0c0.9,0,1.7-0.8,1.7-1.7c0-0.9-0.8-1.7-1.7-1.7
	c-0.1,0-0.2,0-0.3,0V0.8h-0.6v44.4c-0.5,0.3-0.8,0.8-0.8,1.4c0,0.6,0.3,1.1,0.8,1.4v6l-1,0.6l-11.1,6.4l-2.5,1.4V45.6l7.5-4.3
	c0,0,0,0,0,0c0,0,0,0,0,0c0,0,0,0,0,0c0,0,0,0,0,0c0,0,0,0,0,0c0,0,0,0,0,0c0,0,0,0,0,0c0,0,0,0,0,0c0,0,0,0,0,0c0,0,0,0,0,0V0.8
	h-0.6v4.5l-6.7-3.9l1.1-0.7h-1.3l-0.2,0.1V0.8h-0.6v0.1l-0.2-0.1h-1.3l1.1,0.7l-6.7,3.9V0.8h-0.6v27.4c-0.8,0.2-1.3,0.9-1.3,1.7
	s0.6,1.5,1.3,1.7v9.4l-7,4V10.5c0.5-0.1,0.8-0.6,0.8-1.1c0-0.5-0.3-0.9-0.8-1.1V0.8h-0.6v7.6c-0.4,0.1-0.8,0.6-0.8,1.1
	c0,0.5,0.3,0.9,0.8,1.1v34.8l-7,4V0.8H448v48.9l-7,4V41c0,0,0.1,0,0.1,0c0.9,0,1.7-0.8,1.7-1.7s-0.8-1.7-1.7-1.7c-0.1,0-0.1,0-0.1,0
	V0.8h-0.6v37c-0.5,0.3-0.9,0.9-0.9,1.5s0.4,1.2,0.9,1.5v13.2l-0.2,0.1l-6.8-3.9V0.8h-0.6v49.2l-7-4V0.8h-0.6v36l-7.2-4.1
	c0,0,0,0,0,0c0,0,0,0,0,0c0,0,0,0,0,0c0,0,0,0,0,0c0,0,0,0,0,0c0,0,0,0,0,0c0,0,0,0,0,0c0,0,0,0,0,0c0,0,0,0,0,0c0,0,0,0,0,0L410,37
	l-7.1,4.1V0.8h-0.6v4.5l-7-4V0.8h-0.6v0.1l-0.2-0.1h-1.3l1.4,0.8v8.1l-7-4V0.8H387v4.5l-7-4V0.8h-0.6v0.1l-0.2-0.1h-1.3l1.4,0.8v8.1
	l-7-4V0.8h-0.6v4.5l-7-4V0.8h-0.6v0.1l-0.2-0.1h-1.3l1.4,0.8v8.1l-7-4V0.8h-0.6v101.7l-14.8,8.5c-0.5-0.7-1.3-1.2-2.2-1.2
	c-1.5,0-2.7,1.2-2.7,2.7c0,0.4,0.1,0.8,0.3,1.2l-11.3,6.5l-6.8-3.9V0.8h-0.6V116l-7-4V0.8h-0.6v110.8l-7-4V39.3
	c1.4-0.1,2.5-1.2,2.5-2.7c0-1.4-1.1-2.6-2.5-2.7V0.8h-0.6V34c-1.2,0.2-2.2,1.3-2.2,2.6c0,1.3,0.9,2.4,2.2,2.6v68.3l-7,4V0.8h-0.6
	v111.2L227,151.4c0,0,0,0,0,0c0,0,0,0,0,0c0,0,0,0,0,0c0,0,0,0,0,0l0,0c0,0,0,0,0,0c0,0,0,0,0,0c0,0,0,0,0,0c0,0,0,0,0,0
	c0,0,0,0,0,0v8.3l-7.1-4.1c0,0,0,0,0,0c0,0,0,0,0,0c0,0,0,0,0,0c0,0,0,0,0,0c0,0,0,0,0,0c0,0,0,0,0,0c0,0,0,0,0,0c0,0,0,0,0,0
	c0,0,0,0,0,0c0,0,0,0,0,0L181,178c-0.8-1-2.1-1.6-3.5-1.6c-2.6,0-4.6,2.1-4.6,4.6c0,0.5,0.1,1.1,0.3,1.5l-30,17.3c0,0,0,0,0,0
	c0,0,0,0,0,0c0,0,0,0,0,0c0,0,0,0,0,0c0,0,0,0,0,0c0,0,0,0,0,0c0,0,0,0,0,0c0,0,0,0,0,0c0,0,0,0,0,0c0,0,0,0,0,0v70.3l-45.6,26.3
	c0,0,0,0,0,0c0,0,0,0,0,0c0,0,0,0,0,0c0,0,0,0,0,0c0,0,0,0,0,0c0,0,0,0,0,0c0,0,0,0,0,0c0,0,0,0,0,0c0,0,0,0,0,0c0,0,0,0,0,0v123.3
	c0,0,0,0,0,0c0,0,0,0,0,0c0,0,0,0,0,0c0,0,0,0,0,0c0,0,0,0,0,0c0,0,0,0,0,0c0,0,0,0,0,0l0,0c0,0,0,0,0,0c0,0,0,0,0,0l45.8,26.4
	l22.7,13.1V504h0.6v-43.5l33,19.1c-0.2,0.4-0.3,0.8-0.3,1.3c0,1.8,1.4,3.2,3.2,3.2c1.1,0,2-0.5,2.6-1.3l6.7,3.8v8.4l-15.7,9.1h1.3
	l14.4-8.3v8.3h0.6v-8.3l7,4v4.3h0.6v-3.9l6.8,3.9h1.3l-8.1-4.7v-8.1l22,12.7h1.3l-23.3-13.5v-69.7l37.5,21.6V504h0.6v-61.2l7,4V504
	h0.6v-56.8l20.5,11.8c-0.2,0.4-0.3,0.8-0.3,1.2c0,1.5,1.2,2.8,2.8,2.8c1,0,1.8-0.5,2.3-1.2l4.6,2.7v26L272.2,504h1.3l22-12.7v8.1
	l-8.1,4.7h1.3l6.8-3.9v3.9h0.6v-4.3l7-4v8.3h0.6v-8.7l7-4V504h0.6v-13.1l7-4V504h0.6v-17.5l22.6-13l14.9,8.6V504h0.6v-21.5l7,4v17.2
	l-0.4,0.3h1.3l14.7-8.5l7,4l-7.7,4.5h1.3l7.1-4.1l7.1,4.1h1.3l-8.1-4.7v-8.1l7.2,4.1l14.9,8.6h1.3l-15.4-8.9l29.6-17.1V504h0.6
	v-26.3l7-4V504h0.6v-30.7l7-4V504h0.6v-35.1l7-4V504h0.6v-39.5l7-4V504h0.6v-43.9l7-4V504h0.6v-48.3l7-4v52.1l-0.4,0.3h1.3
	l31.8-18.4v-0.7l-32,18.5v-51.7l32,18.5v-0.7l-32-18.5v-17.2l7.5-4.3c0,0,0,0,0,0c0,0,0,0,0,0c0,0,0,0,0,0c0,0,0,0,0,0c0,0,0,0,0,0
	c0,0,0,0,0,0c0,0,0,0,0,0c0,0,0,0,0,0c0,0,0,0,0,0c0,0,0,0,0,0v-8.6l22.6-13l1.8,1v-0.7l-1.2-0.7l1.2-0.7v-0.7l-1.8,1l-7-4l7-4
	l1.8,1v-0.7l-1.2-0.7l1.2-0.7v-0.7l-1.8,1l-22.6-13v-8.4l24.4-14.1v-0.7l-24.4,14.1v-34.1l24.4,14.1v-0.7l-24.4-14.1v-8.1l24.4,14.1
	v-0.7L479.1,332V324l24.4,14.1v-0.7l-24.4-14.1v-34.5l24.4,14.1v-0.7L479.1,288V262l24.4-14.1v-0.7l-24.4,14.1v-8.1l24.4-14.1v-0.7
	l-24.4,14.1v-42.9l24.4,14.1v-0.7l-24.4-14.1v-17.2l24.4-14.1v-0.7l-24.4,14.1v-8.1l22.6-13l1.8,1V170l-1.2-0.7l1.2-0.7v-0.7l-1.8,1
	l-22.6-13v-8.6c0,0,0,0,0,0c0,0,0,0,0,0c0,0,0,0,0,0c0,0,0,0,0,0c0,0,0,0,0,0c0,0,0,0,0,0c0,0,0,0,0,0c0,0,0,0,0,0c0,0,0,0,0,0
	c0,0,0,0,0,0l-7.6-4.4c0,0,0,0,0,0c0,0,0,0,0,0c0,0,0,0,0,0l0.1,0l8.5-4.9c0.4,0.7,1.1,1.2,1.9,1.2c1.2,0,2.2-1.1,2.2-2.4
	c0-0.3-0.1-0.7-0.2-1l19.8-11.4v-0.7l-20.1,11.6c-0.4-0.6-1-0.9-1.7-0.9c-1.2,0-2.2,1.1-2.2,2.4c0,0.2,0,0.5,0.1,0.7l-8.1,4.7v-8.1
	l32-18.5v-0.7l-32,18.5v-16.9l7.5-4.3l7.6-4.4l11.1-6.4l5.8-3.3v-0.7l-5.9,3.4L486.7,94V81.9l16.7,9.7v-0.7l-16.7-9.7V69l16.7,9.7
	v-0.7l-16.7-9.7V56.1l16.7,9.7v-0.7l-16.7-9.7v-1l9.7-5.6l7.1,4.1v-0.7l-6.5-3.7l6.5-3.7V44z M471.5,2l6.7,3.9l-6.7,3.9V2z
	 M471.5,10.4l7-4v34.1l-7-4V10.4z M471.5,37.2l6.7,3.9l-6.7,3.9V37.2z M143,432.6c-1.6,0.2-2.8,1.5-2.8,3.1s1.2,3,2.8,3.1v7.3
	l-44.8-25.9l44.8-25.9V432.6z M143,393.7l-45.1,26.1V297.6l18.5,10.7c-0.4,0.7-0.6,1.5-0.6,2.3c0,2.6,2.1,4.6,4.6,4.6
	c1.7,0,3.2-0.9,4-2.3l18.6,10.7V393.7z M143,322.9l-18.3-10.6c0.2-0.5,0.3-1.1,0.3-1.8c0-2.6-2.1-4.6-4.6-4.6
	c-1.5,0-2.8,0.7-3.7,1.8L98.2,297l44.8-25.9V322.9z M227.5,249.1l21.9,12.7l-21.9,12.7V249.1z M227.5,372.4l21.9,12.7l-21.9,12.7
	V372.4z M227.8,398.3l22.2-12.8l7,4l-22.2,12.8L227.8,398.3z M241.8,407.1l-7,4l-7-4l7-4L241.8,407.1z M219.9,156.7l7,4V222l-7,4
	V156.7z M219.9,226.7l7-4V248l-7-4V226.7z M219.9,244.7l7,4v25.7l-7-4V244.7z M219.9,271.1l7,4v50.8c-1.1,0.4-1.9,1.4-1.9,2.6
	c0,1.2,0.8,2.2,1.9,2.6v14.1l-7,4V271.1z M219.9,350l7-4v25.3l-7-4V350z M219.9,368l7,4v25.7l-7-4V368z M219.9,394.4l7.1,4.1
	l7.1,4.1l-7,4l-7.3-4.2V394.4z M219.5,403l7,4l-14.3,8.3v-8.1L219.5,403z M219.2,394.1v8.1l-7-4V390L219.2,394.1z M212.2,389.3
	v-25.7l7,4v25.7L212.2,389.3z M218.9,402.7l-6.7,3.9v-7.7L218.9,402.7z M181.1,302v69.9c0,0,0,0,0,0c0,0,0,0,0,0c0,0,0,0,0,0
	c0,0,0,0,0,0c0,0,0,0,0,0c0,0,0,0,0,0c0,0,0,0,0,0l0,0c0,0,0,0,0,0c0,0,0,0,0,0l7.1,4.1l-7,4l-7.3-4.2V306L181.1,302z M174.1,305.3
	v-51.7l7,4v43.7L174.1,305.3z M219.2,244.4V270L182,248.6l22.2-12.8L219.2,244.4z M204.9,235.4l14.3-8.3v16.5L204.9,235.4z
	 M219.2,270.8v8.1l-37.5-21.6v-8.1L219.2,270.8z M218.9,279.4l-37.2,21.5v-42.9L218.9,279.4z M219.2,279.9v69.7l-37.5,21.6v-69.7
	L219.2,279.9z M173.3,183.2c0.8,1.5,2.3,2.5,4.1,2.5c2.6,0,4.6-2.1,4.6-4.6c0-0.9-0.3-1.8-0.7-2.5l37.9-21.9v69.7l-14.9,8.6
	l-60.4-34.9L173.3,183.2z M143.6,200.7l60.1,34.7l-22.4,12.9c0,0,0,0,0,0c0,0,0,0,0,0l0,0c0,0,0,0,0,0c0,0,0,0,0,0c0,0,0,0,0,0
	c0,0,0,0,0,0c0,0,0,0,0,0c0,0,0,0,0,0c0,0,0,0,0,0v8.3l-7.1-4.1c0,0,0,0,0,0c0,0,0,0,0,0c0,0,0,0,0,0c0,0,0,0,0,0c0,0,0,0,0,0
	s0,0,0,0c0,0,0,0,0,0c0,0,0,0,0,0c0,0,0,0,0,0c0,0,0,0,0,0l-30,17.3V200.7z M143.6,270.8l29.9-17.2v52.1l-29.9,17.2V270.8z
	 M143.6,323.6l29.9-17.2v69.7l-29.9,17.2V323.6z M165.8,459.4l-21.9-12.7l21.9-12.7V459.4z M166,389.2
	C166,389.2,166,389.2,166,389.2C166,389.2,166,389.2,166,389.2C165.9,389.2,165.9,389.2,166,389.2c-0.1,0.1-0.1,0.1-0.1,0.1
	c0,0,0,0,0,0c0,0,0,0,0,0c0,0,0,0,0,0c0,0,0,0,0,0c0,0,0,0,0,0c0,0,0,0,0,0v43.8l-22.2,12.8v-7.3c1.6-0.1,2.9-1.5,2.9-3.1
	s-1.3-3-2.9-3.1v-38.5l30.2-17.4l7,4L166,389.2z M166.5,390l37.2,21.5l-37.2,21.5V390z M211.6,485.8l-6.3-3.7
	c0.2-0.4,0.3-0.8,0.3-1.3c0-1.8-1.4-3.2-3.2-3.2c-1.1,0-2,0.5-2.6,1.3l-33.3-19.2v-26l37.8-21.8l7.3,4.2V485.8z M211.6,415.3
	l-6.7-3.9l6.7-3.9V415.3z M211.6,406.9l-7.3,4.2l-37.5-21.6l14.6-8.4l30.2,17.4V406.9z M211.6,397.7L182,380.7l7-4l22.6,13V397.7z
	 M211.6,388.9l-21.9-12.7l21.9-12.7V388.9z M212.1,362.8C212.1,362.8,212.1,362.8,212.1,362.8C212,362.8,212,362.8,212.1,362.8
	C212,362.7,212,362.7,212.1,362.8c-0.1,0-0.1,0-0.1,0c0,0,0,0,0,0c0,0,0,0,0,0c0,0,0,0,0,0c0,0,0,0,0,0c0,0,0,0,0,0c0,0,0,0,0,0
	L189,375.9l-7-4l37.2-21.5v16.5L212.1,362.8z M219.2,499l-7-4v-8.1l7,4V499z M219.4,420C219.4,420,219.4,420,219.4,420
	C219.3,420,219.3,420,219.4,420C219.3,420.1,219.3,420.1,219.4,420c-0.1,0.1-0.1,0.1-0.1,0.1c0,0,0,0,0,0c0,0,0,0,0,0c0,0,0,0,0,0
	c0,0,0,0,0,0c0,0,0,0,0,0c0,0,0,0,0,0v69.9l-7-4v-70.1l14.9-8.6l7,4L219.4,420z M257.3,441.7l-37.2-21.5l14.6-8.4l22.6,13V441.7z
	 M257.3,424.1l-21.9-12.7l7-4l14.9,8.6V424.1z M257.3,415.3l-14.3-8.3l14.3-8.3V415.3z M257.3,398.1l-14.9,8.6l-7-4l21.9-12.7V398.1
	z M257.3,388.9l-6.7-3.9l6.7-3.9V388.9z M257.3,380.5l-7.3,4.2l-22.6-13v-26.1l29.9-17.2V380.5z M257.3,327.6l-29.9,17.2v-13.6
	c0.1,0,0.2,0,0.2,0c1.5,0,2.8-1.2,2.8-2.8c0-1.5-1.2-2.8-2.8-2.8c-0.1,0-0.2,0-0.2,0v-50.6l22.6-13l7.3,4.2V327.6z M257.3,265.6
	l-6.7-3.9l6.7-3.9V265.6z M257.3,257.2l-7.3,4.2l-22.6-13v-26l29.9-17.2V257.2z M265,446.1l-7-4v-16.9l7,4V446.1z M265,428.5l-7-4
	v-8.1l7,4V428.5z M265,419.7l-7-4v-17.2l7-4V419.7z M265,393.7l-7,4v-16.9l7-4V393.7z M265,376.1l-7,4v-51.7l7,4V376.1z
	 M295.5,463.8l-4.4-2.5c0.1-0.3,0.2-0.6,0.2-1c0-1.5-1.2-2.8-2.8-2.8c-0.9,0-1.6,0.4-2.1,1l-20.8-12v-16.9l29.9,17.2V463.8z
	 M295.5,446.1l-29.9-17.2v-8.1l29.9,17.2V446.1z M295.5,437.3l-29.9-17.2v-25.7l29.9,17.2V437.3z M295.5,410.9l-29.9-17.2v-17.2
	l29.9-17.2V410.9z M295.5,358.5l-29.9,17.2v-42.9l29.9,17.2V358.5z M295.5,349.3L265.6,332v-60.9l29.9,17.2V349.3z M303.1,494.9
	l-7,4v-8.1l7-4V494.9z M303.1,486.1l-7,4v-25.3l7,4V486.1z M303.1,468.2l-7-4v-16.9l7,4V468.2z M303.1,450.6l-7-4v-8.1l7,4V450.6z
	 M303.1,441.8l-7-4V412l7,4V441.8z M303.1,415.3l-7-4v-52.5l7-4V415.3z M296.1,358.1v-7.7l6.7,3.9L296.1,358.1z M303.1,353.7l-7-4
	v-60.9l7,4V353.7z M303.1,292.1l-7-4v-8.1l7,4V292.1z M303.1,283.3l-6.7-3.9l6.7-3.9V283.3z M303.1,274.8l-7.5,4.3c0,0,0,0,0,0
	c0,0,0,0,0,0l0,0c0,0,0,0,0,0c0,0,0,0,0,0c0,0,0,0,0,0c0,0,0,0,0,0c0,0,0,0,0,0c0,0,0,0,0,0c0,0,0,0,0,0v8.3l-29.6-17.1l37.2-21.5
	V274.8z M303.1,248.4l-38,21.9c0,0,0,0,0,0c0,0,0,0,0,0c0,0,0,0,0,0c0,0,0,0,0,0c0,0,0,0,0,0c0,0,0,0,0,0c0,0,0,0,0,0c0,0,0,0,0,0
	c0,0,0,0,0,0c0,0,0,0,0,0v61.1l-7-4v-61.3l45.1-26.1V248.4z M303.1,239.6L258,265.6v-8.1l45.1-26.1V239.6z M258,256.8v-51.7
	l44.8,25.9L258,256.8z M303.1,230.4l-45.3-26.1c0,0,0,0,0,0c0,0,0,0,0,0c0,0,0,0,0,0c0,0,0,0,0,0c0,0,0,0,0,0c0,0,0,0,0,0
	c0,0,0,0,0,0c0,0,0,0,0,0c0,0,0,0,0,0c0,0,0,0,0,0l-30,17.3v-60.5l75.6,43.7V230.4z M303.1,204l-75.6-43.7v-8.1l75.6,43.7V204z
	 M303.1,195.2l-75.3-43.5l67.7-39.1v60.5c0,0,0,0,0,0c0,0,0,0,0,0c0,0,0,0,0,0c0,0,0,0,0,0c0,0,0,0,0,0c0,0,0,0,0,0c0,0,0,0,0,0
	c0,0,0,0,0,0c0,0,0,0,0,0c0,0,0,0,0,0l7.5,4.3V195.2z M303.1,177l-6.7-3.9l6.7-3.9V177z M303.1,168.5l-7,4v-60.3l7-4V168.5z
	 M357.1,94.4l6.7,3.9l-6.7,3.9V94.4z M357.1,103.2l6.7,3.9l-6.7,3.9V103.2z M357.1,120.8l6.7,3.9l-6.7,3.9V120.8z M337.4,114.2
	c0.5,0.6,1.2,0.9,2,0.9c1.5,0,2.7-1.2,2.7-2.7c0-0.3-0.1-0.6-0.2-0.9l14.5-8.4v8.1l-23.1,13.3l-7-4L337.4,114.2z M356.5,112V138
	L334,125L356.5,112z M319,117.1l6.1,3.5l-6.1,3.5V117.1z M319,124.9l6.8-3.9l7,4l-13.8,7.9V124.9z M319,133.7l14.4-8.3l23.1,13.3
	v7.8L319,168.2V133.7z M319,168.9l37.8-21.8l7,4L319,177V168.9z M311.4,112.7l7,4v7.8l-7,4V112.7z M318.3,125.2v7.7l-6.7-3.9
	L318.3,125.2z M311.4,129.6l7,4v34.9l-7,4V129.6z M318.3,169.3v7.7l-6.7-3.9L318.3,169.3z M311.4,173.7l6.7,3.9l-6.7,3.9V173.7z
	 M303.7,108.2l7,4v60.3l-7-4V108.2z M303.7,169.3l6.7,3.9l-6.7,3.9V169.3z M310.7,173.7v7.7l-6.7-3.9L310.7,173.7z M303.7,205.1
	l29.5,17.1l-29.5,17.1V205.1z M303.7,240l29.9-17.2v8.1L303.7,248V240z M303.7,275.5l6.7,3.9l-6.7,3.9V275.5z M303.7,284.3l6.7,3.9
	l-6.7,3.9V284.3z M310.7,490.5l-7,4v-8.1l7-4V490.5z M310.7,481.7l-7,4v-16.5l7,4V481.7z M310.7,472.6l-7-4v-16.9l7,4V472.6z
	 M310.7,455l-7-4v-8.1l7,4V455z M310.7,446.1l-7-4v-25.7l7,4V446.1z M310.7,419.7l-7-4v-60.9l7,4V419.7z M310.7,358.1l-7-4v-60.9
	l7,4V358.1z M310.7,296.5l-6.7-3.9l6.7-3.9V296.5z M310.7,287.7l-6.7-3.9l6.7-3.9V287.7z M311,279l-7.3-4.2v-26.1l29.9-17.2V266
	L311,279z M311.4,279.9l6.7,3.9l-6.7,3.9V279.9z M318.3,486.1l-7,4v-8.1l7-4V486.1z M318.3,477.3l-7,4v-8.1l7-4V477.3z M318.3,468.5
	l-7,4v-16.5l7,4V468.5z M318.3,459.4l-7-4v-8.1l7,4V459.4z M318.3,450.6l-7-4v-25.7l7,4V450.6z M318.3,424.1l-6.7-3.9l6.7-3.9V424.1
	z M318.3,415.7l-7,4v-60.5l7,4V415.7z M318.3,362.5l-7-4v-61.3l7-4V362.5z M318.3,292.4l-7,4v-8.1l7-4V292.4z M318.7,283.4l-7-4
	l21.9-12.7v8.1L318.7,283.4z M325.7,464.3l-6.7,3.9v-7.7L325.7,464.3z M319,459.7v-8.1l14.3,8.3l-7,4L319,459.7z M326.3,464.7l7,4
	L319,477v-8.1L326.3,464.7z M326.9,464.3l6.7-3.9v7.7L326.9,464.3z M319,450.9v-25.7l14.6,8.4v25.7L319,450.9z M319,424.5v-8.4
	l14.6-8.4v25.3L319,424.5z M319,415.3v-51.7l14.6,8.4v34.9L319,415.3z M319,362.9v-8.4l14.6-8.4v25.3L319,362.9z M319,353.7v-60.9
	l14.6-8.4v60.9L319,353.7z M319,292.1V284l14.6-8.4v8.1L319,292.1z M341.2,472.9L319,485.8v-8.1l15.1-8.7c0,0,0,0,0,0c0,0,0,0,0,0
	c0,0,0,0,0,0c0,0,0,0,0,0c0,0,0,0,0,0c0,0,0,0,0,0c0,0,0,0,0,0c0,0,0,0,0,0c0,0,0,0,0,0c0,0,0,0,0,0v-8.3l7,4V472.9z M341.2,463.8
	l-6.7-3.9l6.7-3.9V463.8z M341.2,455.3l-7,4V434l7,4V455.3z M341.2,437.3l-7-4v-26.1l7-4V437.3z M341.2,402.5l-7,4v-34.1l7,4V402.5z
	 M341.2,375.7l-7-4v-26.1l7-4V375.7z M341.2,340.9l-7,4V284l7-4V340.9z M341.2,279.2l-7,4v-8.1l7-4V279.2z M341.2,270.4l-7,4v-8.1
	l7-4V270.4z M341.2,261.6l-7,4v-34.5l7-4V261.6z M341.2,226.4l-7,4v-8.3c0,0,0,0,0,0c0,0,0,0,0,0c0,0,0,0,0,0c0,0,0,0,0,0
	c0,0,0,0,0,0c0,0,0,0,0,0c0,0,0,0,0,0c0,0,0,0,0,0c0,0,0,0,0,0c0,0,0,0,0,0l-30.3-17.5v-8.1l37.5,21.7V226.4z M356.5,481.4
	l-14.6-8.4v-8.4l7-4v8.3c0,0,0,0,0,0c0,0,0,0,0,0c0,0,0,0,0,0c0,0,0,0,0,0c0,0,0,0,0,0c0,0,0,0,0,0c0,0,0,0,0,0c0,0,0,0,0,0
	c0,0,0,0,0,0c0,0,0,0,0,0l7.5,4.3V481.4z M348.8,257.9v8.1l-7,4V262L348.8,257.9z M341.9,261.2v-34.1l7,4v26.1L341.9,261.2z
	 M348.8,266.7v8.1l-7,4v-8.1L348.8,266.7z M348.8,275.5v60.9l-7,4v-60.9L348.8,275.5z M348.8,337.2v42.9l-7-4v-34.9L348.8,337.2z
	 M348.8,380.8v17.2l-7,4v-25.3L348.8,380.8z M348.8,398.8v42.9l-7-4v-34.9L348.8,398.8z M348.8,442.5v8.4l-7,4v-16.5L348.8,442.5z
	 M348.8,451.7v8.1l-7,4v-8.1L348.8,451.7z M356.5,472.6l-6.7-3.9l6.7-3.9V472.6z M356.5,464.1l-7,4v-8.1l7-4V464.1z M356.5,455.3
	l-7,4v-8.1l7-4V455.3z M349.5,450.6v-7.7l6.7,3.8L349.5,450.6z M356.5,446.1l-7-4v-43.7l7-4V446.1z M356.5,393.7l-7,4v-16.5l7,4
	V393.7z M356.5,384.5l-7-4v-43.7l7-4V384.5z M356.5,332l-7,4v-60.9l7-4V332z M356.5,270.4l-7,4v-8.1l7-4V270.4z M356.5,261.6l-7,4
	v-8.1l7-4V261.6z M356.5,252.8l-7,4v-25.3l7,4V252.8z M356.5,234.8l-7-4v-8.1l7,4V234.8z M364.1,485.8l-7-4v-8.1l7,4V485.8z
	 M364.1,477l-7-4v-8.4l7-4V477z M364.1,459.7l-7,4v-8.1l7-4V459.7z M364.1,450.9l-7,4v-8.1l7-4V450.9z M364.1,442.1l-7,4V394l7-4
	V442.1z M357.1,393.3v-7.7l6.7,3.9L357.1,393.3z M364.1,370.7c-2.1,0.1-3.7,1.8-3.7,3.8s1.7,3.8,3.7,3.8v10.5l-7-4v-43.3l7,4V370.7z
	 M364.1,344.9l-6.7-3.9l6.7-3.9V344.9z M364.1,336.4l-7,4v-8.1l7-4V336.4z M357.1,331.7V324l6.7,3.9L357.1,331.7z M364.1,327.3
	l-6.7-3.9l6.7-3.8V327.3z M364.1,318.8l-7,4v-52.1l7-4V318.8z M364.1,266l-7,4V262l7-4V266z M364.1,257.2l-7,4v-8.1l7-4V257.2z
	 M364.1,248.4l-7,4v-16.5l7,4V248.4z M364.1,239.2l-7-4v-8.1l7,4V239.2z M364.1,230.4l-6.7-3.9l6.7-3.8V230.4z M364.1,222l-7.3,4.2
	l-7-4l14.3-8.3V222z M364.1,213.2l-15.1,8.7c0,0,0,0,0,0c0,0,0,0,0,0c0,0,0,0,0,0c0,0,0,0,0,0c0,0,0,0,0,0c0,0,0,0,0,0c0,0,0,0,0,0
	c0,0,0,0,0,0c0,0,0,0,0,0c0,0,0,0,0,0v8.3l-7-4v-8.4l22.2-12.8V213.2z M364.1,204.4l-22.6,13l-37.8-21.8v-17.5l7.1,4.1c0,0,0,0,0,0
	c0,0,0,0,0,0c0,0,0,0,0,0c0,0,0,0,0,0c0,0,0,0,0,0c0,0,0,0,0,0c0,0,0,0,0,0c0,0,0,0,0,0c0,0,0,0,0,0c0,0,0,0,0,0l7.6-4.4l45.3-26.1
	V204.4z M364.1,150.6l-7-4v-7.4l7,4V150.6z M364.1,142.4l-7-4v-8.7l7,4V142.4z M364.1,132.9l-6.7-3.9l6.7-3.9V132.9z M364.1,124.1
	l-7-4V112l7,4V124.1z M364.1,115.3l-6.7-3.9l6.7-3.9V115.3z M364.1,106.5l-6.7-3.9l6.7-3.9V106.5z M364.1,97.7l-7-4v-8.1l7,4V97.7z
	 M364.1,88.9l-7-4v-8.1l7,4V88.9z M364.1,80.1l-7-4V68l7,4V80.1z M364.1,71.3l-7-4v-8.1l7,4V71.3z M364.1,62.5l-7-4v-8.1l7,4V62.5z
	 M364.1,53.7l-7-4v-8.1l7,4V53.7z M364.1,44.9l-7-4v-8.1l7,4V44.9z M364.1,36.1l-7-4V24l7,4V36.1z M364.1,27.3l-7-4v-8.1l7,4V27.3z
	 M364.1,18.5l-7-4V6.4l7,4V18.5z M372.4,86.2l6.1,3.5l-6.1,3.5V86.2z M372.4,95l6.1,3.5l-6.1,3.5V95z M372.4,112l6.7,3.9l-6.7,3.9
	V112z M372.4,120.8l6.7,3.9l-6.7,3.9V120.8z M372.4,129.6l6.7,3.9l-6.7,3.9V129.6z M372.4,235.9l6.7,3.9l-6.7,3.9V235.9z
	 M372.4,244.7l6.7,3.9l-6.7,3.9V244.7z M372.4,332.8l6.7,3.8l-6.7,3.9V332.8z M364.7,2l7,4v8.1l-7-4V2z M364.7,10.8l7,4v8.1l-7-4
	V10.8z M364.7,19.6l7,4v8.1l-7-4V19.6z M364.7,28.4l7,4v8.1l-7-4V28.4z M364.7,37.2l7,4v8.1l-7-4V37.2z M364.7,46l7,4v8.1l-7-4V46z
	 M364.7,54.8l7,4v8.1l-7-4V54.8z M364.7,63.6l7,4v8.1l-7-4V63.6z M364.7,72.4l7,4v8.1l-7-4V72.4z M364.7,81.2l7,4v0.3l-6.8,3.9
	l-0.2-0.1V81.2z M365.6,89.8l6.1-3.5v7.1L365.6,89.8z M371.7,94.7v7.4l-6.7-3.9l6.4-3.7L371.7,94.7z M364.7,90.6l6.1,3.5l-6.1,3.5
	V90.6z M364.7,98.8l6.7,3.9l-6.7,3.9V98.8z M371.7,103.2v7.7l-6.7-3.9L371.7,103.2z M364.7,107.6l7,4v8.1l-7-4V107.6z M364.7,116.4
	l6.7,3.9l-6.7,3.9V116.4z M371.7,120.8v7.7l-6.7-3.9L371.7,120.8z M364.7,125.2l6.7,3.9l-6.7,3.9V125.2z M371.7,129.6v7.7l-6.7-3.9
	L371.7,129.6z M364.7,134l7,4v8.7l-7-4V134z M364.7,143.5l7,4V200l-7,4V143.5z M364.7,204.7l7-4v8.1l-7,4V204.7z M364.7,213.5l7-4
	V226l-7-4V213.5z M364.7,222.7l6.7,3.8l-6.7,3.9V222.7z M371.7,227.1v7.7l-6.7-3.9L371.7,227.1z M364.7,231.5l7,4v8.1l-7-4V231.5z
	 M364.7,240.3l6.7,3.9l-6.7,3.9V240.3z M364.7,248.8l7-4v8.1l-7,4V248.8z M364.7,257.6l7-4v8.1l-7,4V257.6z M364.7,266.4l7-4v52.1
	l-7,4V266.4z M364.7,319.2l7-4v8.1l-7,4V319.2z M364.7,328l7-4v8.1l-7,4V328z M371.7,332.8v7.7l-6.7-3.9L371.7,332.8z M364.7,337.2
	l6.7,3.9l-6.7,3.9V337.2z M364.7,503.4v-16.5l14.3,8.3L364.7,503.4z M379.4,494.6l-14.6-8.4v-8.1l14.6,8.4V494.6z M379.4,485.8
	l-14.6-8.4v-17.2l14.6-8.4V485.8z M379.4,450.9l-14.6,8.4v-8.1l14.6-8.4V450.9z M379.4,442.1l-14.6,8.4v-8.1l14.6-8.4V442.1z
	 M379.4,433.3l-14.6,8.4V390l14.6,8.4V433.3z M379.4,397.7l-14.3-8.3l14.3-8.3V397.7z M379.4,380.5l-14.6,8.4v-10.6
	c1.9-0.3,3.3-1.9,3.3-3.8s-1.4-3.5-3.3-3.8v-25.1l7.5-4.3l7.2-4.1V380.5z M379.4,336.1l-7-4v-8.4l7-4V336.1z M379.4,318.8l-7,4v-8.1
	l7-4V318.8z M379.4,310l-7,4v-34.1l7,4V310z M379.4,283.3l-6.7-3.9l6.7-3.9V283.3z M379.4,274.8l-7,4V262l7-4V274.8z M379.4,257.2
	l-7,4v-8.1l7-4V257.2z M379.4,248l-6.7-3.9l6.7-3.9V248z M379.4,239.2l-7-4v-8.1l7,4V239.2z M379.4,230.4l-6.7-3.9l6.7-3.8V230.4z
	 M379.4,222l-7,4v-16.9l7-4V222z M379.4,204.4l-7,4v-8.1l7-4V204.4z M379.4,195.6l-7,4v-51.7l7,4V195.6z M379.4,151.2l-6.7-3.9
	l6.7-3.9V151.2z M379.4,142.7l-7,4v-8.3l7,4V142.7z M379.4,141.7l-6.7-3.9l6.7-3.9V141.7z M379.4,132.9l-6.7-3.9l6.7-3.9V132.9z
	 M379.4,124.1l-6.7-3.9l6.7-3.9V124.1z M379.4,115.3l-7-4v-8.1l7,4V115.3z M379.4,106.5l-6.7-3.9l6.5-3.7l0.2,0.1V106.5z
	 M379.4,97.7l-6.1-3.5l6.1-3.5V97.7z M379.4,88.9l-7-4v-8.1l7,4V88.9z M379.4,80.1l-7-4V68l7,4V80.1z M379.4,71.3l-7-4v-8.1l7,4
	V71.3z M379.4,62.5l-7-4v-8.1l7,4V62.5z M379.4,53.7l-7-4v-8.1l7,4V53.7z M379.4,44.9l-7-4v-8.1l7,4V44.9z M379.4,36.1l-7-4V24l7,4
	V36.1z M379.4,27.3l-7-4v-8.1l7,4V27.3z M379.4,18.5l-7-4V6.4l7,4V18.5z M418.1,33.4l6.7,3.9l-6.7,3.9V33.4z M418.1,94.4l6.7,3.9
	l-6.7,3.9V94.4z M418.1,103.2l6.7,3.9l-6.7,3.9V103.2z M418.1,112.7l6.1,3.5l-6.1,3.5V112.7z M418.1,121.5l6.1,3.5l-6.1,3.5V121.5z
	 M418.1,129.6l6.7,3.9l-6.7,3.9V129.6z M418.1,138.4l6.7,3.9l-6.7,3.9V138.4z M418.1,244.7l6.7,3.9l-6.7,3.9V244.7z M418.1,288.8
	l6.7,3.9l-6.7,3.9V288.8z M418.1,341.6l6.7,3.8l-6.7,3.9V341.6z M418.1,350.4l6.7,3.9l-6.7,3.9V350.4z M417.5,33.4v7.7l-6.7-3.9
	L417.5,33.4z M410.5,37.8l6.7,3.9l-6.7,3.9V37.8z M417.5,42.2v7.7l-6.7-3.9L417.5,42.2z M410.5,46.6l7,4v16.6l-7,4V46.6z M410.5,72
	l7-4v8.1l-7,4V72z M410.5,80.8l7-4v16.9l-7,4V80.8z M410.8,107.1l6.7-3.9v7.7L410.8,107.1z M417.5,112.3v7.4l-6.7-3.9l6.5-3.7
	L417.5,112.3z M417.5,94.4v7.7l-6.7-3.9L417.5,94.4z M410.5,98.8l6.7,3.9l-6.7,3.9V98.8z M410.5,108.2l6.1,3.5l-6.1,3.5V108.2z
	 M410.5,117.1l6.1,3.5l-6.1,3.5V117.1z M417.5,121.5v7.1l-6.1-3.5L417.5,121.5z M410.5,125.5l0.2-0.1l6.5,3.7l-6.7,3.9V125.5z
	 M417.5,129.6v7.7l-6.7-3.9L417.5,129.6z M410.5,134l6.7,3.9l-6.7,3.9V134z M417.5,138.4v7.7l-6.7-3.9L417.5,138.4z M410.5,142.8
	l6.7,3.9l-6.7,3.9V142.8z M410.5,151.3l7-4v25.9l-7-4V151.3z M410.5,169.9l6.7,3.9l-6.7,3.9V169.9z M410.5,178.3l7-4v8.1l-7,4V178.3
	z M410.5,187.1l7-4v34.5l-7,4V187.1z M410.5,222.4l7-4v8.1l-7,4V222.4z M410.5,231.2l7-4v8.1l-7,4V231.2z M417.5,235.9v7.7l-6.7-3.9
	L417.5,235.9z M410.5,240.3l7,4v8.1l-7-4V240.3z M410.5,249.1l6.7,3.9l-6.7,3.9V249.1z M410.5,257.6l7-4V288l-7,4V257.6z
	 M410.5,292.8l7-4v8.1l-7,4V292.8z M417.5,297.6v7.7l-6.7-3.9L417.5,297.6z M410.5,302l7,4v34.9l-7,4V302z M410.2,416.2l7,4
	l-21.9,12.7v-8.1L410.2,416.2z M395.2,424.1v-16.5l14.3,8.3L395.2,424.1z M410.8,415.9l6.7-3.9v7.7L410.8,415.9z M410.2,415.5
	l-14.9-8.6v-25.7l9.8,5.6c-0.2,0.3-0.3,0.7-0.3,1c0,1.3,1.2,2.4,2.7,2.4c0.8,0,1.6-0.4,2.1-0.9l8,4.6v17.2L410.2,415.5z
	 M409.8,388.9c0.2-0.3,0.3-0.7,0.3-1c0-1.3-1.2-2.4-2.7-2.4c-0.8,0-1.5,0.3-2,0.9l-10.1-5.9v-8.1l22.2,12.8v8.1L409.8,388.9z
	 M395.6,371.9l21.9-12.7v25.3L395.6,371.9z M417.5,341.6v7.7l-6.7-3.9L417.5,341.6z M410.5,346l6.7,3.9l-6.7,3.9V346z M417.5,350.4
	v7.7l-6.7-3.9L417.5,350.4z M409.9,37.8v7.7l-6.7-3.9L409.9,37.8z M402.9,42.2l7,4v25.4l-7,4V42.2z M402.9,76.4l7-4v8.1l-7,4V76.4z
	 M402.9,85.2l7-4v16.9l-7,4V85.2z M403.2,111.5l6.5-3.7l0.2,0.1v7.4L403.2,111.5z M409.9,116.7v7.4l-6.7-3.9l6.5-3.7L409.9,116.7z
	 M403.2,102.7l6.7-3.9v7.7L403.2,102.7z M402.9,103.8l6.1,3.5l-6.1,3.5V103.8z M402.9,112.7l6.1,3.5l-6.1,3.5V112.7z M402.9,120.8
	l6.7,3.9l-6.7,3.9V120.8z M409.9,125.9v7.1l-6.1-3.5L409.9,125.9z M402.9,129.9l0.2-0.1l6.5,3.7l-6.7,3.9V129.9z M409.9,134v7.7
	l-6.7-3.9L409.9,134z M402.9,138.4l6.7,3.9l-6.7,3.9V138.4z M409.9,142.8v7.7l-6.7-3.9L409.9,142.8z M402.9,147.2l6.7,3.9l-6.7,3.9
	V147.2z M402.9,155.7l7-4v17.1l-7-4V155.7z M402.9,176.4C402.9,176.4,402.9,176.4,402.9,176.4c1.5,0,2.7-1.2,2.7-2.7
	c0-1.5-1.2-2.7-2.7-2.7c0,0,0,0,0,0v-5.5l7,4v8.4l-7,4V176.4z M402.9,182.7l7-4v8.1l-7,4V182.7z M402.9,191.5l7-4V222l-7,4V191.5z
	 M402.9,226.7l7-4v8.1l-7,4V226.7z M409.9,231.5v7.7l-6.7-3.9L409.9,231.5z M402.9,235.9l6.7,3.9l-6.7,3.9V235.9z M409.9,240.3v7.7
	l-6.7-3.9L409.9,240.3z M402.9,244.7l7,4v8.4l-7,4V244.7z M402.9,262l7-4v34.5l-7,4V262z M409.9,293.2v7.7l-6.7-3.9L409.9,293.2z
	 M402.9,297.6l6.7,3.9l-6.7,3.9V297.6z M402.9,306l7-4v43.3l-7,4V306z M409.9,346v7.7l-6.7-3.9L409.9,346z M402.2,349.9
	C402.2,349.9,402.2,349.9,402.2,349.9C402.2,349.9,402.2,349.9,402.2,349.9c0,0.1,0,0.1,0,0.1c0,0,0,0,0,0c0,0,0,0,0,0c0,0,0,0,0,0
	c0,0,0,0,0,0c0,0,0,0,0,0c0,0,0,0,0,0l7.6,4.4l7.1,4.1l-21.9,12.7v-60.9l7-4L402.2,349.9C402.2,349.8,402.2,349.9,402.2,349.9z
	 M401.9,235.4l-7,4l-7-4l7-4L401.9,235.4z M395.6,231l6.7-3.9v7.7L395.6,231z M402.2,235.9v7.7l-6.7-3.9L402.2,235.9z M402.2,262.3
	v34.1l-7-4v-26L402.2,262.3z M395.2,265.6v-16.9l7-4v16.9L395.2,265.6z M401.9,297l-6.7,3.9v-7.7L401.9,297z M402.2,297.6v8.1l-7,4
	v-8.1L402.2,297.6z M402.2,112.3v7.4l-6.7-3.9l6.4-3.7L402.2,112.3z M395.6,107.1l6.4-3.7l0.2,0.1v7.4L395.6,107.1z M402.2,155
	l-6.7-3.9l6.7-3.9V155z M395.6,142.3l6.7-3.9v7.7L395.6,142.3z M396.1,133.8l6.1-3.5v7.1L396.1,133.8z M395.6,124.7l6.7-3.9v7.7
	L395.6,124.7z M402.2,84.5l-6.7-3.8l6.7-3.9V84.5z M395.2,2l7,4v8.1l-7-4V2z M395.2,10.8l7,4v8.1l-7-4V10.8z M395.2,19.6l7,4v8.1
	l-7-4V19.6z M395.2,28.4l7,4v8.1l-7-4V28.4z M395.2,37.2l7,4v8.1l-7-4V37.2z M395.2,46l7,4v8.1l-7-4V46z M395.2,54.8l7,4v8.1l-7-4
	V54.8z M395.2,63.6l7,4v8.1l-7-4V63.6z M395.2,72.4l6.7,3.9l-6.7,3.9V72.4z M395.2,81.2l7,4v8.1l-7-4V81.2z M395.2,90l7,4v8.1l-7-4
	V90z M395.2,99.4l6.1,3.5l-6.1,3.5V99.4z M395.2,108.2l6.1,3.5l-6.1,3.5V108.2z M395.2,116.4l6.7,3.9l-6.7,3.9V116.4z M395.2,125.2
	l6.7,3.9l-6.7,3.9V125.2z M395.2,134.3l0.2-0.1l6.5,3.7l-6.7,3.9V134.3z M395.2,142.8l6.7,3.9l-6.7,3.9V142.8z M387.6,6.4l7,4v8.1
	l-7-4V6.4z M387.6,15.2l7,4v8.1l-7-4V15.2z M387.6,24l7,4v8.1l-7-4V24z M387.6,32.8l7,4v8.1l-7-4V32.8z M387.6,41.6l7,4v8.1l-7-4
	V41.6z M387.6,50.4l7,4v8.1l-7-4V50.4z M387.6,59.2l7,4v8.1l-7-4V59.2z M387.6,68l7,4v8.1l-7-4V68z M387.6,76.8l7,4v8.1l-7-4V76.8z
	 M387.6,85.6l6.7,3.9l-6.7,3.9V85.6z M394.6,90v7.7l-6.7-3.9L394.6,90z M387.6,95l7,4v7.4l-7-4V95z M394.6,107.9v7.4l-6.7-3.9
	l6.4-3.7L394.6,107.9z M387.6,103.8l6.1,3.5l-6.1,3.5V103.8z M387.6,112l6.7,3.9l-6.7,3.9V112z M394.6,116.4v7.7l-6.7-3.9
	L394.6,116.4z M387.6,120.8l6.7,3.9l-6.7,3.9V120.8z M394.6,125.2v7.7l-6.7-3.9L394.6,125.2z M387.6,129.6l6.7,3.9l-6.7,3.9V129.6z
	 M394.6,134.7v7.1l-6.1-3.5L394.6,134.7z M387.6,138.7l0.2-0.1l6.4,3.7l-6.7,3.9V138.7z M394.6,142.8v7.7l-6.7-3.9L394.6,142.8z
	 M380,2l7,4v8.1l-7-4V2z M380,10.8l7,4v8.1l-7-4V10.8z M380,19.6l7,4v8.1l-7-4V19.6z M380,28.4l7,4v8.1l-7-4V28.4z M380,37.2l7,4
	v8.1l-7-4V37.2z M380,46l7,4v8.1l-7-4V46z M380,54.8l7,4v8.1l-7-4V54.8z M380,63.6l7,4v8.1l-7-4V63.6z M380,72.4l7,4v8.1l-7-4V72.4z
	 M380.3,89.5l6.7-3.9v7.7L380.3,89.5z M387,94.7v7.4l-6.7-3.9l6.5-3.7L387,94.7z M380,81.2l6.7,3.8l-6.7,3.9V81.2z M380,90.6
	l6.1,3.5l-6.1,3.5V90.6z M380,99.4l7,4v7.4l-7-4V99.4z M380,107.6l6.7,3.9l-6.7,3.9V107.6z M387,112v7.7l-6.7-3.9L387,112z
	 M380,116.4l6.7,3.9l-6.7,3.9V116.4z M387,120.8v7.7l-6.7-3.9L387,120.8z M380,125.2l6.7,3.9l-6.7,3.9V125.2z M387,129.6v7.7
	l-6.7-3.9L387,129.6z M380,134l6.7,3.9l-6.7,3.9V134z M387,139.1v7.1l-6.1-3.5L387,139.1z M380,143.1l0.2-0.1l6.9,4l7.6,4.4l7.5,4.3
	v8.7L380,151.5V143.1z M380,152.3l22.2,12.8v6c-1.2,0.3-2,1.3-2,2.6c0,1.3,0.9,2.3,2,2.6v6L380,195.2V152.3z M380,195.9l22.2-12.8
	v8.1L380,204V195.9z M380,204.7l22.2-12.8v34.5l-7.3,4.2L380,222V204.7z M380,222.7l14.3,8.3l-7,4l-7.3-4.2V222.7z M380,231.5
	l6.7,3.9l-6.7,3.9V231.5z M380,240.3l6.7,3.9L380,248V240.3z M380,249.1l6.7,3.9l-6.7,3.9V249.1z M387,499l-7-4v-8.1l7,4V499z
	 M387,490.2l-7-4v-34.9l7-4V490.2z M387,446.5l-7,4v-8.1l7-4V446.5z M387,437.7l-7,4v-8.1l7-4V437.7z M387,428.9l-7,4v-34.1l7,4
	V428.9z M387,402.1l-7-4v-17.2l7-4V402.1z M387,376.1l-7,4v-60.9l7-4V376.1z M387,314.4l-7,4v-8.1l7-4V314.4z M387,305.6l-7,4v-25.3
	l7,4V305.6z M387,287.7l-7-4v-8.4l7-4V287.7z M387,270.4l-7,4v-16.9l7-4V270.4z M387,252.4l-6.7-3.9l6.7-3.9V252.4z M387.3,243.8
	l-7-4l7-4l7,4L387.3,243.8z M394.6,494.6l-6.7-3.9l6.7-3.9V494.6z M394.6,486.1l-7,4v-43.3l7-4V486.1z M394.6,442.1l-7,4v-8.1l7-4
	V442.1z M394.6,433.3l-7,4v-8.1l7-4V433.3z M394.6,424.5l-7,4v-25.3l7,4V424.5z M394.6,406.5l-7-4v-25.7l7,4V406.5z M394.6,380.1
	l-7-4v-61.3l7-4V380.1z M394.6,310l-7,4V306l7-4V310z M394.6,301.2l-7,4v-16.5l7,4V301.2z M394.6,292.1l-7-4v-17.2l7-4V292.1z
	 M394.6,266l-7,4v-25.3l7,4V266z M387.9,244.2l7-4l7,4l-7,4L387.9,244.2z M425.1,477.3l-29.9,17.2v-8.1l29.9-17.2V477.3z
	 M425.1,468.5l-29.9,17.2v-43.3l8.3-4.8c0.8,1.3,2.3,2.1,3.9,2.1c2.6,0,4.6-2.1,4.6-4.6c0-0.8-0.2-1.5-0.5-2.1l13.6-7.8V468.5z
	 M425.1,424.5l-13.9,8c-0.8-1.2-2.2-2-3.8-2c-2.6,0-4.6,2.1-4.6,4.6c0,0.7,0.2,1.3,0.4,1.9l-8,4.6v-8.1l22.7-13.1c0,0,0,0,0,0
	c0,0,0,0,0,0c0,0,0,0,0,0c0,0,0,0,0,0c0,0,0,0,0,0c0,0,0,0,0,0c0,0,0,0,0,0c0,0,0,0,0,0c0,0,0,0,0,0c0,0,0,0,0,0v-8.6l7-4V424.5z
	 M425.1,406.9l-7,4v-16.5l7,4V406.9z M425.1,397.7l-7-4v-8.1l7,4V397.7z M425.1,388.9l-7-4v-25.7l7,4V388.9z M425.1,362.5l-6.7-3.9
	l6.7-3.9V362.5z M425.1,353.7l-6.7-3.9l6.7-3.9V353.7z M425.1,344.9l-7-4V306l7-4V344.9z M425.1,301.2l-7,4v-8.1l7-4V301.2z
	 M425.1,292.1l-6.7-3.9l6.7-3.9V292.1z M425.1,283.6l-7,4v-34.1l7,4V283.6z M425.1,256.8l-6.7-3.9l6.7-3.9V256.8z M425.1,248l-7-4
	v-8.4l7-4V248z M425.1,230.8l-7,4v-8.1l7-4V230.8z M425.1,222l-7,4v-8.1l7-4V222z M425.1,213.2l-7,4v-34.5l7-4V213.2z M425.1,178
	l-7,4v-8.1l7-4V178z M425.1,169.2l-7,4v-26.3l7-4V169.2z M425.1,141.7l-6.7-3.9l6.7-3.9V141.7z M425.1,132.9l-6.7-3.9l6.5-3.7
	l0.2,0.1V132.9z M425.1,124.1l-6.1-3.5l6.1-3.5V124.1z M425.1,115.3l-6.7-3.9l6.7-3.9V115.3z M425.1,106.5l-6.7-3.9l6.7-3.9V106.5z
	 M425.1,97.7l-6.7-3.9l6.7-3.9V97.7z M425.1,89.3l-7,4V76.4l7-4V89.3z M425.1,71.7l-7,4v-8.1l7-4V71.7z M425.1,62.9l-7,4V51l7,4
	V62.9z M425.1,54.3l-7-4v-8.1l7,4V54.3z M425.1,45.5l-6.7-3.9l6.7-3.9V45.5z M448.6,68.6l6.1,3.5l-3.1,1.8l-3,1.8V68.6z M448.6,85.6
	l6.7,3.9l-6.7,3.9V85.6z M448.6,94.4l6.7,3.9l-6.7,3.9V94.4z M448.3,103l7,4l-7,4l-7-4L448.3,103z M433,119.9l-7-4l7-4l7,4
	L433,119.9z M440.7,116.2l7,4l-7,4l-7-4L440.7,116.2z M440,124.7l-7,4l-7-4l7-4L440,124.7z M439.5,133.8l-6.5,3.7l-7-4l6.4-3.7
	L439.5,133.8z M433.7,129.1l7-4l7,4l-7,4L433.7,129.1z M441.3,124.7l7-4l7,4l-7,4L441.3,124.7z M441.3,115.9l7-4l7,4l-7,4
	L441.3,115.9z M448,102.1l-6.7-3.9l6.7-3.9V102.1z M441.3,89.5l6.7-3.9v7.7L441.3,89.5z M441.3,80.7l6.7-3.9v7.7L441.3,80.7z
	 M441,54.4l7-4v8.1l-0.2,0.1l-6.8-3.9V54.4z M441,55.4l6.1,3.5l-6.1,3.5V55.4z M441,63.2l6.8-3.9l0.2,0.1v8.1l-7-4V63.2z M441,64.2
	l7,4v7.8l-7,4V64.2z M441,81.2l6.7,3.8l-6.7,3.9V81.2z M441,90l6.7,3.9l-6.7,3.9V90z M441,98.8l6.7,3.9l-6.7,3.9V98.8z M440.7,107.4
	l7,4l-7,4l-7-4L440.7,107.4z M440.4,106.5l-6.7-3.9l6.7-3.9V106.5z M433.7,93.9l6.7-3.9v7.7L433.7,93.9z M433.7,85.1l6.7-3.8v7.7
	L433.7,85.1z M433.4,51l6.1,3.5l-6.1,3.5V51z M433.4,58.8l6.8-3.9l0.2,0.1v7.8l-0.2,0.1l-6.8-3.9V58.8z M433.4,59.8l6.1,3.5
	l-6.1,3.5V59.8z M433.4,67.6l6.8-3.9l0.2,0.1v16.6l-7,4V67.6z M433.4,85.6l6.7,3.9l-6.7,3.9V85.6z M433.4,94.4l6.7,3.9l-6.7,3.9
	V94.4z M433,103l7,4l-7,4l-7-4L433,103z M432.7,102.1l-6.7-3.9l6.7-3.9V102.1z M426.1,89.5l6.7-3.9v7.7L426.1,89.5z M425.7,46.6l7,4
	v7.8l-0.2,0.1l-6.8-3.9V46.6z M425.7,55.4l6.1,3.5l-6.1,3.5V55.4z M425.7,63.2l6.8-3.9l0.2,0.1v7.8l-7,4V63.2z M425.7,72l7-4v16.9
	l-7,4V72z M425.7,90l6.7,3.9l-6.7,3.9V90z M425.7,98.8l6.7,3.9l-6.7,3.9V98.8z M425.7,107.6l6.7,3.9l-6.7,3.9V107.6z M425.7,116.4
	l6.7,3.9l-6.7,3.9V116.4z M425.7,125.9l6.1,3.5l-6.1,3.5V125.9z M425.7,134l6.7,3.9l-6.7,3.9V134z M425.7,205.1l6.7,3.8l-6.7,3.9
	V205.1z M425.7,293.2l6.7,3.9l-6.7,3.9V293.2z M425.7,398.8l6.7,3.9l-6.7,3.9V398.8z M432.7,472.9l-7,4v-8.1l7-4V472.9z
	 M432.7,464.1l-7,4v-42.9l7,4V464.1z M432.7,428.5l-7-4v-17.2l7-4V428.5z M432.7,402.1l-7-4V390l7,4V402.1z M432.7,393.3l-7-4v-25.7
	l7,4V393.3z M432.7,366.9l-7-4v-8.1l7,4V366.9z M432.7,358.1l-6.7-3.9l6.7-3.9V358.1z M432.7,349.7l-7,4v-42.9l7,4V349.7z
	 M432.7,314.1l-6.7-3.9l6.7-3.9V314.1z M432.7,305.6l-7,4v-8.1l7-4V305.6z M432.7,296.5l-6.7-3.9l6.7-3.9V296.5z M432.7,288l-7,4
	V284l7-4V288z M432.7,279.2l-7,4v-25.3l7,4V279.2z M432.7,261.2l-7-4v-26.1l7-4V261.2z M432.7,226.4l-7,4v-8.1l7-4V226.4z
	 M432.7,217.6l-7,4v-8.1l7-4V217.6z M432.7,208.4l-6.7-3.8l6.7-3.9V208.4z M440.4,468.5l-7,4v-8.1l7-4V468.5z M440.4,459.7l-7,4
	v-34.1l7,4V459.7z M440.4,412.8c-0.1,0-0.1,0-0.2,0c-1.5,0-2.7,1.2-2.7,2.7c0,1.5,1.2,2.7,2.7,2.7c0.1,0,0.1,0,0.2,0v14.8l-7-4
	v-34.5l7,4V412.8z M440.4,397.7l-7-4V368l7,4V397.7z M440.4,371.3l-7-4v-8.1l7,4V371.3z M440.4,362.5l-7-4V350l7-4V362.5z
	 M440.4,345.3l-7,4v-34.1l7,4V345.3z M440.4,318.5l-7-4V306l7-4V318.5z M433.4,305.3v-7.7l6.7,3.9L433.4,305.3z M440.4,300.9
	l-6.7-3.9l6.7-3.9V300.9z M440.4,292.4l-7,4v-8.1l7-4V292.4z M440.4,283.6l-7,4v-8.1l7-4V283.6z M440.4,274.8l-7,4v-16.5l7,4V274.8z
	 M440.4,265.6l-7-4v-34.9l7-4V265.6z M440.4,222l-7,4v-8.1l7-4V222z M433.4,217.2v-7.7l6.7,3.9L433.4,217.2z M440.4,212.8l-6.7-3.9
	l6.7-3.8V212.8z M433.4,208.4v-7.7l6.7,3.9L433.4,208.4z M440.7,204.2l-7.5-4.3c0,0,0,0,0,0c0,0,0,0,0,0c0,0,0,0,0,0c0,0,0,0,0,0
	c0,0,0,0,0,0c0,0,0,0,0,0c0,0,0,0,0,0c0,0,0,0,0,0c0,0,0,0,0,0c0,0,0,0,0,0l-7.1,4.1v-25.3l29.6,17.1L440.7,204.2z M441,205.1
	l6.7,3.8l-6.7,3.9V205.1z M441,266.7l6.7,3.9l-6.7,3.9V266.7z M448,464.1l-7,4v-8.1l7-4V464.1z M448,455.3l-7,4V434l7,4V455.3z
	 M448,437.3l-7-4V418c1.1-0.4,1.9-1.3,1.9-2.5s-0.8-2.2-1.9-2.5v-14.5l7-4V437.3z M448,393.7l-7,4v-25.3l7,4V393.7z M448,375.7l-7-4
	v-8.1l7,4V375.7z M448,366.9l-7-4v-17.2l7-4V366.9z M448,340.9l-7,4v-25.3l7,4V340.9z M448,322.9l-7-4V302l7,4V322.9z M448,305.3
	l-6.7-3.9l6.7-3.9V305.3z M448,296.8l-7,4v-8.1l7-4V296.8z M448,288l-7,4V284l7-4V288z M448,279.2l-7,4v-8.1l7-4V279.2z M448,270
	l-7-4v-43.7l7-4V270z M448,217.6l-7,4v-8.1l7-4V217.6z M455.6,459.7l-7,4v-8.1l7-4V459.7z M455.6,450.9l-7,4v-16.5l7,4V450.9z
	 M455.6,441.8l-7-4V394l7-4V441.8z M455.6,389.3l-7,4v-16.5l7,4V389.3z M455.6,380.1l-7-4V368l7,4V380.1z M455.6,371.3l-7-4v-26.1
	l7-4V371.3z M455.6,336.4l-7,4V324l7,4V336.4z M455.6,327.3l-7-4v-16.9l7,4V327.3z M455.6,309.7l-7-4v-8.4l7-4V309.7z M455.6,292.4
	l-7,4v-8.1l7-4V292.4z M455.6,283.6l-7,4v-8.1l7-4V283.6z M448.6,278.9v-7.7l6.7,3.9L448.6,278.9z M455.6,274.4l-6.7-3.9l6.7-3.9
	V274.4z M455.6,266l-7,4v-52.1l7-4V266z M455.6,213.2l-7,4v-8.1l7-4V213.2z M455.6,204.4l-7.3,4.2l-7-4l14.3-8.3V204.4z
	 M455.6,195.2l-29.5-17.1l29.5-17.1V195.2z M455.6,160.3l-29.9,17.2v-8.1l29.9-17.2V160.3z M455.6,151.5l-29.9,17.2v-26.3l7.5-4.3
	l6.9-4l7,4.1c-0.1,0.2-0.1,0.4-0.1,0.6c0,0.9,0.8,1.7,1.7,1.7c0.5,0,1-0.2,1.3-0.6l5.5,3.2V151.5z M455.6,142.4l-5.2-3
	c0.1-0.2,0.1-0.3,0.1-0.5c0-0.9-0.8-1.7-1.7-1.7c-0.5,0-0.9,0.2-1.3,0.6l-6.7-3.9l0.1,0h0l7.6-4.4l7.1-4.1V142.4z M455.6,124.1
	l-6.7-3.9l6.7-3.9V124.1z M455.6,115.3l-6.7-3.9l6.7-3.9V115.3z M455.6,106.5l-6.7-3.9l6.7-3.9V106.5z M455.6,97.7l-6.7-3.9l6.7-3.9
	V97.7z M455.6,88.9l-7-4v-8.4l3.2-1.8l3.8,2.2V88.9z M455.6,76l-3.2-1.8l2.9-1.7l0.2,0.1V76z M455.6,71.7l-0.2,0.1l-6.8-3.9v-8.1
	l7,4V71.7z M455.6,63.1l-7-4v-0.3l7-4V63.1z M455.6,54.1l-7,4V50l7-4V54.1z M456.2,64.2l6.1,3.5l-6.1,3.5V64.2z M456.2,90l6.7,3.9
	l-6.7,3.9V90z M456.2,98.8l6.7,3.9l-6.7,3.9V98.8z M456.2,107.6l6.7,3.9l-6.7,3.9V107.6z M456.2,116.4l6.7,3.9l-6.7,3.9V116.4z
	 M456.2,143.5l6.7,3.9l-6.7,3.9V143.5z M456.2,196.3l6.7,3.9l-6.7,3.9V196.3z M456.2,275.5l6.7,3.9l-6.7,3.9V275.5z M456.2,310.8
	l6.7,3.9l-6.7,3.9V310.8z M456.2,328.4l6.7,3.9l-6.7,3.8V328.4z M456.2,381.2l6.7,3.9l-6.7,3.9V381.2z M456.2,442.8l6.7,3.8
	l-6.7,3.9V442.8z M463.2,455.3l-7,4v-8.1l7-4V455.3z M463.2,446.1l-7-4v-52.5l7-4V446.1z M463.2,384.5l-7-4v-8.1l7,4V384.5z
	 M463.2,375.7l-7-4v-34.9l7-4V375.7z M463.2,331.7l-7-4v-8.1l7,4V331.7z M463.2,322.9l-6.7-3.9l6.7-3.9V322.9z M463.2,314.1l-7-4
	v-17.2l7-4V314.1z M463.2,288l-7,4V284l7-4V288z M463.2,278.9l-6.7-3.9l6.7-3.9V278.9z M463.2,270.4l-7,4v-8.1l7-4V270.4z
	 M463.2,261.6l-7,4v-52.1l7-4V261.6z M463.2,208.8l-7,4v-8.1l7-4V208.8z M463.2,199.6l-6.7-3.9l6.7-3.9V199.6z M463.2,191.2l-7,4
	v-34.5l7-4V191.2z M463.2,155.9l-7,4v-8.1l7-4V155.9z M463.2,146.1l-6.7-3.9l6.7-3.9V146.1z M463.2,137.7l-7,4v-16.9l7-4V137.7z
	 M463.2,119.7l-6.7-3.9l6.7-3.9V119.7z M463.2,110.9l-6.7-3.9l6.7-3.9V110.9z M463.2,102.1l-6.7-3.9l6.7-3.9V102.1z M463.2,93.3
	l-7-4V77.1l7,4V93.3z M463.2,80.4l-7-4v-3.8l7-4V80.4z M463.2,67.3l-0.2,0.1l-6.8-3.9v-9.1l7-4V67.3z M463.2,49.7l-7,4v-8.1l7-4
	V49.7z M463.9,94.4l6.7,3.9l-6.7,3.9V94.4z M463.9,103.2l6.7,3.9l-6.7,3.9V103.2z M463.9,112l6.7,3.9l-6.7,3.9V112z M463.9,138.4
	l6.7,3.9l-6.7,3.9V138.4z M463.9,147.9l6.7,3.9l-6.7,3.9V147.9z M463.9,200.7l6.7,3.9l-6.7,3.8V200.7z M463.9,315.2l6.7,3.9
	l-6.7,3.9V315.2z M463.9,324l6.7,3.9l-6.7,3.9V324z M463.9,376.8l6.7,3.9l-6.7,3.9V376.8z M463.9,385.6l6.7,3.9l-6.7,3.9V385.6z
	 M463.9,420.8l6.7,3.9l-6.7,3.9V420.8z M463.9,455v-7.7l6.7,3.9L463.9,455z M470.9,450.6l-7-4v-16.9l7,4V450.6z M470.9,432.9
	l-6.7-3.9l6.7-3.9V432.9z M470.9,424.1l-6.7-3.9l6.7-3.9V424.1z M470.9,415.7l-7,4v-25.3l7,4V415.7z M470.9,397.7l-6.7-3.9l6.7-3.9
	V397.7z M470.9,388.9l-6.7-3.9l6.7-3.9V388.9z M470.9,380.1l-7-4v-43.3l7,4V380.1z M470.9,336.1l-6.7-3.8l6.7-3.9V336.1z
	 M470.9,327.3l-6.7-3.9l6.7-3.9V327.3z M470.9,318.5l-7-4v-26.1l7-4V318.5z M470.9,283.6l-7,4v-16.9l7-4V283.6z M470.9,266l-7,4V262
	l7-4V266z M470.9,212.5c-1.1,0.2-1.9,1.2-1.9,2.4s0.8,2.3,1.9,2.4v39.9l-7,4v-52.1l7-4V212.5z M470.9,204l-6.7-3.9l6.7-3.9V204z
	 M470.9,195.6l-7,4v-8.1l7-4V195.6z M470.9,186.8l-7,4v-34.5l7-4V186.8z M470.9,151.2l-6.7-3.9l6.7-3.9V151.2z M470.9,141.7
	l-6.7-3.9l6.7-3.9V141.7z M470.9,133.3l-7,4v-16.9l7-4V133.3z M470.9,115.3l-6.7-3.9l6.7-3.9V115.3z M470.9,106.5l-6.7-3.9l6.7-3.9
	V106.5z M470.9,97.7l-7-4V81.5l7,4V97.7z M470.9,84.9l-7-4V68.7l7,4V84.9z M470.9,72l-7-4v-0.3l7-4V72z M470.9,62.9l-7,4V50l7-4
	V62.9z M470.9,45.3l-7,4v-8.1l7-4V45.3z M470.9,36.4l-7,4v-9c0.8-0.1,1.5-0.8,1.5-1.7s-0.6-1.6-1.5-1.7V6.4l7,4V36.4z M470.9,9.7
	l-6.7-3.9l6.7-3.9V9.7z M479.1,156.7l21.9,12.7L479.1,182V156.7z M479.1,385.6l21.9,12.7l-7,4l-14.9-8.6V385.6z M479.1,394.4
	l14.3,8.3l-14.3,8.3V394.4z M479.1,411.7l14.9-8.6l7,4l-21.9,12.7V411.7z M478.5,428.5l-6.7-3.9l6.7-3.9V428.5z M478.5,384.5
	l-6.7-3.9l6.7-3.9V384.5z M478.5,331.7l-6.7-3.9l6.7-3.9V331.7z M478.5,155.6l-6.7-3.9l6.7-3.9V155.6z M471.5,143.5l6.7,3.9
	l-6.7,3.9V143.5z M471.5,152.3l7,4v26.1l-7,4V152.3z M471.5,187.1l7-4v8.1l-7,4V187.1z M471.5,195.9l7-4v16.5l-7-4V195.9z
	 M471.5,217.3c1-0.2,1.8-1.2,1.8-2.4c0-1.2-0.8-2.2-1.8-2.4v-7.4l7,4v43.7l-7,4V217.3z M471.5,257.6l7-4v8.1l-7,4V257.6z
	 M471.5,266.4l7-4v25.3l-7-4V266.4z M471.5,284.3l7,4v34.5l-7-4V284.3z M471.5,319.6l6.7,3.8l-6.7,3.9V319.6z M471.5,328.4l7,4v8.1
	l-7-4V328.4z M471.5,337.2l7,4v34.9l-7,4V337.2z M471.5,381.2l7,4v8.1l-7-4V381.2z M471.5,390l6.7,3.9l-6.7,3.9V390z M471.5,398.5
	l7-4v16.9l-7,4V398.5z M471.5,416.1l7-4v8.1l-7,4V416.1z M471.5,425.2l6.7,3.9l-6.7,3.9V425.2z M471.5,98.8l6.7,3.9l-6.7,3.9V98.8z
	 M471.5,115.3v-7.7l6.7,3.9L471.5,115.3z M478.8,111.1l-7-4l7-4l7,4L478.8,111.1z M486.1,106.5l-7.1-4.1l-7.5-4.3V85.9l14.6,8.4
	V106.5z M486.1,93.7l-14.6-8.4V73.1l14.6,8.4V93.7z M486.1,80.8l-14.6-8.4v-9.1l2.6-1.5l12,6.9V80.8z M486.1,67.9l-11.4-6.6
	l10.5-6.1l0.9,0.5V67.9z M486.1,55l-0.2-0.1l0.2-0.1V55z M496.9,100.6l-10.2,5.9V94.8L496.9,100.6z"/>
</svg>
